<svg width="30.000000" height="30.000000" viewBox="0 0 30 30" fill="none" xmlns="http://www.w3.org/2000/svg" xmlns:xlink="http://www.w3.org/1999/xlink">
	<desc>
			Created with Pixso.
	</desc>
	<defs/>
	<path id="Vector" d="M15 -0.65C12.26 -0.65 9.75 0.02 7.45 1.35C5.18 2.66 3.3 4.54 2 6.8C0.66 9.1 0 11.62 0 14.35C0 17.09 0.66 19.6 2 21.9C3.3 24.17 5.18 26.05 7.45 27.35C9.75 28.69 12.26 29.35 15 29.35C17.73 29.35 20.25 28.69 22.54 27.35C24.81 26.05 26.69 24.17 28 21.9C29.33 19.6 30 17.09 30 14.35C30 11.62 29.33 9.1 28 6.8C26.69 4.54 24.81 2.66 22.54 1.35C20.25 0.02 17.73 -0.65 15 -0.65ZM18.9 14.35L16.4 14.35L16.4 23.35L13 23.35L13 14.35L10.79 14.35L10.79 11.25L13 11.25L13 9.35C13 7.95 13.23 6.95 13.7 6.35C14.23 5.62 15.2 5.25 16.59 5.25L19.09 5.25L19.09 8.35L17.59 8.35C17.06 8.35 16.73 8.44 16.59 8.6C16.46 8.77 16.4 9.09 16.4 9.55L16.4 11.05L19.09 11.05L18.9 14.35Z" fill="#7E7E7E" fill-opacity="1.000000" fill-rule="nonzero"/>
</svg>
