<svg width="30.000000" height="30.000000" viewBox="0 0 30 30" fill="none" xmlns="http://www.w3.org/2000/svg" xmlns:xlink="http://www.w3.org/1999/xlink">
	<desc>
			Created with Pixso.
	</desc>
	<defs/>
	<path id="Vector" d="M20 14.95C19.87 15.61 19.63 16.23 19.29 16.8C18.96 17.37 18.52 17.86 18 18.25C17.3 18.77 16.46 19.07 15.59 19.1C14.74 19.14 13.89 18.93 13.15 18.5C12.39 18.08 11.78 17.43 11.4 16.65C10.79 15.45 10.66 14.19 11 12.85L9.59 12.85L9.7 19.75C9.7 19.89 9.75 20.02 9.84 20.15C9.95 20.29 10.06 20.35 10.2 20.35L20.59 20.35C20.73 20.35 20.86 20.29 21 20.15C21.13 20.02 21.2 19.89 21.2 19.75L21.2 12.85L19.79 12.85C20 13.52 20.06 14.22 20 14.95ZM15.4 17.45C16.2 17.45 16.9 17.15 17.5 16.55C18.09 15.95 18.4 15.24 18.4 14.4C18.4 13.59 18.1 12.8 17.54 12.2C16.98 11.57 16.28 11.25 15.45 11.25C14.61 11.25 13.9 11.55 13.29 12.15C12.7 12.75 12.4 13.47 12.4 14.3C12.4 15.14 12.68 15.87 13.25 16.5C13.81 17.14 14.5 17.45 15.29 17.45L15.4 17.45ZM20.59 7.95L19.2 7.95C19.06 7.95 18.93 8.02 18.79 8.15C18.66 8.29 18.59 8.42 18.59 8.55L18.59 10.25C18.73 10.52 18.93 10.65 19.2 10.65L20.59 10.65C20.79 10.65 20.95 10.59 21.04 10.45C21.14 10.34 21.19 10.2 21.2 10.05L21.2 8.55C21.2 8.42 21.13 8.29 21 8.15C20.86 8.02 20.73 7.95 20.59 7.95ZM15 -0.65C12.26 -0.65 9.75 0.02 7.45 1.35C5.18 2.66 3.3 4.54 2 6.8C0.66 9.1 0 11.62 0 14.35C0 17.09 0.66 19.6 2 21.9C3.3 24.17 5.18 26.05 7.45 27.35C9.75 28.69 12.26 29.35 15 29.35C17.73 29.35 20.25 28.69 22.54 27.35C24.81 26.05 26.69 24.17 28 21.9C29.33 19.6 30 17.09 30 14.35C30 11.62 29.33 9.1 28 6.8C26.69 4.54 24.81 2.66 22.54 1.35C20.25 0.02 17.73 -0.65 15 -0.65ZM22.79 20.45L22.7 20.55L22.7 20.65C22.7 20.81 22.67 20.97 22.61 21.12C22.55 21.26 22.46 21.39 22.34 21.5C22.11 21.74 21.82 21.89 21.5 21.95L9.4 21.95C9.23 21.96 9.07 21.92 8.92 21.85C8.78 21.78 8.65 21.68 8.54 21.55C8.32 21.3 8.16 20.99 8.09 20.65L8 20.45L8.09 8.15C8.09 7.82 8.21 7.52 8.45 7.25C8.68 6.99 8.96 6.82 9.29 6.75L21.4 6.75C21.72 6.82 22.01 6.97 22.25 7.2C22.48 7.44 22.63 7.73 22.7 8.05L22.79 20.45Z" fill="#7E7E7E" fill-opacity="1.000000" fill-rule="nonzero"/>
</svg>
