<svg width="24.000000" height="24.000000" viewBox="0 0 24 24" fill="none" xmlns="http://www.w3.org/2000/svg" xmlns:xlink="http://www.w3.org/1999/xlink">
	<desc>
			Created with Pixso.
	</desc>
	<defs/>
	<path id="Vector" d="M20.2979 5.20117C21.2266 6.13086 21.7471 7.3916 21.7471 8.70508C21.7471 10.0186 21.2266 11.2793 20.2979 12.209L12 20.5078L3.70117 12.209C2.77344 11.2793 2.25195 10.0195 2.25195 8.70508C2.25195 7.3916 2.77344 6.13184 3.70117 5.20215C4.16016 4.74023 4.70605 4.37402 5.30762 4.125C5.90918 3.87598 6.55371 3.74805 7.20508 3.75C8.5293 3.75 9.77344 4.26562 10.709 5.20117L11.4688 5.96094L12 6.49219L12.5303 5.96094L13.29 5.20117C13.749 4.73926 14.2949 4.37402 14.8965 4.125C15.498 3.87598 16.1426 3.74805 16.7939 3.75C18.1182 3.75 19.3623 4.26562 20.2979 5.20117Z" stroke="#111111" stroke-opacity="1.000000" stroke-width="1.500000"/>
</svg>
