<svg width="18.000977" height="18.000977" viewBox="0 0 18.001 18.001" fill="none" xmlns="http://www.w3.org/2000/svg" xmlns:xlink="http://www.w3.org/1999/xlink">
	<desc>
			Created with Pixso.
	</desc>
	<defs/>
	<path id="Vector" d="M10.9619 13.2959C9.91602 13.9219 8.71875 14.252 7.5 14.25C6.61328 14.251 5.73535 14.0771 4.91602 13.7383C4.09668 13.3984 3.35352 12.9004 2.72656 12.2734C2.09961 11.6465 1.60156 10.9033 1.26172 10.084C0.922852 9.26465 0.749023 8.38672 0.75 7.5C0.75 5.63574 1.50488 3.94922 2.72656 2.72656C3.35352 2.09961 4.09668 1.60156 4.91602 1.26172C5.73535 0.922852 6.61328 0.749023 7.5 0.75C9.36426 0.75 11.0508 1.50488 12.2734 2.72656C12.9004 3.35352 13.3984 4.09668 13.7383 4.91602C14.0771 5.73535 14.251 6.61328 14.25 7.5C14.252 8.69727 13.9336 9.87402 13.3291 10.9072C12.8115 11.7891 12.8945 12.8945 13.6182 13.6182L17.4707 17.4707" stroke="#111111" stroke-opacity="1.000000" stroke-width="1.500000"/>
</svg>
