<svg width="30.000000" height="30.000000" viewBox="0 0 30 30" fill="none" xmlns="http://www.w3.org/2000/svg" xmlns:xlink="http://www.w3.org/1999/xlink">
	<desc>
			Created with Pixso.
	</desc>
	<defs/>
	<path id="Vector" d="M15 -0.65C12.26 -0.65 9.75 0.02 7.45 1.35C5.18 2.66 3.3 4.54 2 6.8C0.66 9.1 0 11.62 0 14.35C0 17.09 0.66 19.6 2 21.9C3.3 24.17 5.18 26.05 7.45 27.35C9.75 28.69 12.26 29.35 15 29.35C17.73 29.35 20.25 28.69 22.54 27.35C24.81 26.05 26.69 24.17 28 21.9C29.33 19.6 30 17.09 30 14.35C30 11.62 29.33 9.1 28 6.8C26.69 4.54 24.81 2.66 22.54 1.35C20.25 0.02 17.73 -0.65 15 -0.65ZM22.5 10.95L22.5 11.45C22.5 13.19 22.08 14.85 21.25 16.45C20.42 18.04 19.2 19.39 17.7 20.35C16.03 21.42 14.16 21.95 12.09 21.95C10.08 21.97 8.11 21.41 6.4 20.35L7.29 20.35C9.03 20.35 10.56 19.82 11.9 18.75C11.09 18.75 10.38 18.5 9.75 18C9.11 17.5 8.66 16.85 8.4 16.05L9.09 16.25C9.56 16.25 9.9 16.19 10.09 16.05C9.24 15.93 8.47 15.48 7.95 14.8C7.39 14.15 7.09 13.31 7.09 12.45C7.63 12.79 8.2 12.95 8.79 12.95C7.66 12.29 7.09 11.25 7.09 9.85C7.09 9.19 7.26 8.55 7.59 7.95C8.59 9.15 9.75 10.09 11.04 10.75C12.37 11.43 13.82 11.8 15.29 11.85C15.16 11.65 15.09 11.35 15.09 10.95C15.09 9.95 15.46 9.09 16.2 8.35C16.93 7.62 17.79 7.25 18.79 7.25C19.79 7.25 20.73 7.62 21.59 8.35C22.2 8.22 23 7.92 24 7.45C23.73 8.39 23.2 9.05 22.4 9.45L22.5 9.45C23.43 9.25 24.09 9.05 24.5 8.85C23.83 9.72 23.16 10.42 22.5 10.95Z" fill="#7E7E7E" fill-opacity="1.000000" fill-rule="nonzero"/>
</svg>
