<svg width="30.000000" height="30.000000" viewBox="0 0 30 30" fill="none" xmlns="http://www.w3.org/2000/svg" xmlns:xlink="http://www.w3.org/1999/xlink">
	<desc>
			Created with Pixso.
	</desc>
	<defs/>
	<path id="Vector" d="M14.09 21.35C14.04 21.47 13.95 21.58 13.84 21.65C13.76 21.72 13.65 21.75 13.54 21.75C13.45 21.75 13.38 21.72 13.34 21.65C13.31 21.56 13.29 21.46 13.29 21.35L13.29 17.65L12.4 17.65L12.4 21.75C12.39 21.98 12.44 22.21 12.54 22.4C12.65 22.57 12.79 22.65 13 22.65C13.2 22.65 13.38 22.59 13.54 22.45C13.71 22.32 13.9 22.15 14.09 21.95L14.09 22.55L15 22.55L15 17.65L14.09 17.65L14.09 21.35ZM8.7 16.85L8.7 15.85L12 15.85L12 16.85L10.9 16.85L10.9 22.55L9.79 22.55L9.79 16.85L8.7 16.85ZM14.9 10.95C14.76 10.95 14.65 10.9 14.54 10.8C14.5 10.76 14.46 10.71 14.43 10.64C14.41 10.58 14.39 10.52 14.4 10.45L14.4 7.45C14.4 7.39 14.43 7.32 14.5 7.25C14.56 7.19 14.68 7.15 14.84 7.15C15.01 7.15 15.15 7.19 15.25 7.25C15.29 7.29 15.33 7.33 15.36 7.38C15.39 7.44 15.4 7.5 15.4 7.55L15.4 10.45C15.4 10.59 15.34 10.7 15.25 10.8C15.2 10.85 15.15 10.89 15.09 10.92C15.03 10.94 14.96 10.95 14.9 10.95ZM17.4 21.35C17.4 20.55 17.43 19.72 17.5 18.85C17.5 18.72 17.45 18.6 17.34 18.5C17.25 18.4 17.15 18.35 17.04 18.35L16.9 18.35L16.59 18.55L16.59 21.55L16.9 21.75L17.09 21.85C17.23 21.85 17.31 21.82 17.34 21.75C17.38 21.69 17.4 21.55 17.4 21.35ZM17.5 17.55C17.76 17.55 17.98 17.65 18.15 17.85C18.31 18.05 18.4 18.35 18.4 18.75L18.4 21.55C18.4 21.89 18.33 22.15 18.2 22.35C18.14 22.45 18.06 22.52 17.96 22.57C17.86 22.61 17.75 22.62 17.65 22.6C17.44 22.58 17.24 22.53 17.04 22.45C16.89 22.4 16.77 22.29 16.7 22.15L16.7 22.55L15.7 22.55L15.7 15.85L16.7 15.85L16.7 18.05C16.83 17.92 16.96 17.8 17.09 17.7C17.21 17.61 17.35 17.56 17.5 17.55ZM22.4 23.95C22.73 23.69 22.93 22.82 23 21.35C23.06 20.62 23.13 19.92 23.2 19.25C23.2 18.65 23.13 17.99 23 17.25C22.86 15.79 22.65 14.89 22.34 14.55C22.04 14.22 20.76 13.99 18.5 13.85L15.2 13.75L11.79 13.85C9.53 13.99 8.25 14.22 7.95 14.55C7.65 14.89 7.43 15.79 7.29 17.25C7.23 17.92 7.2 18.59 7.2 19.25C7.2 19.92 7.23 20.62 7.29 21.35C7.43 22.82 7.65 23.7 7.95 24C8.25 24.3 9.53 24.55 11.79 24.75L15.2 24.85L18.5 24.75C20.76 24.55 22.06 24.32 22.4 24.05L22.4 23.95ZM10.5 4.35L9.29 4.35L10.7 8.85L10.7 11.65L11.9 11.65L11.9 8.65L13.29 4.35L12.09 4.35L11.4 7.25L11.29 7.25L10.5 4.35ZM13.4 7.55L13.4 10.35C13.4 10.82 13.53 11.19 13.79 11.45C14.06 11.72 14.43 11.85 14.9 11.85C15.36 11.85 15.73 11.72 16 11.45C16.26 11.19 16.4 10.82 16.4 10.35L16.4 7.55C16.4 7.15 16.26 6.82 16 6.55C15.73 6.29 15.36 6.15 14.9 6.15C14.43 6.15 14.06 6.29 13.79 6.55C13.53 6.82 13.4 7.15 13.4 7.55ZM17.29 6.35L17.29 10.85C17.29 11.08 17.34 11.31 17.45 11.5C17.54 11.67 17.71 11.75 17.95 11.75C18.18 11.75 18.4 11.7 18.59 11.6C18.79 11.5 19 11.35 19.2 11.15L19.2 11.75L20.29 11.75L20.29 6.35L19.2 6.35L19.2 10.35C19.13 10.48 19.03 10.59 18.9 10.65C18.79 10.71 18.67 10.75 18.54 10.75C18.45 10.75 18.38 10.74 18.34 10.7C18.31 10.67 18.29 10.59 18.29 10.45L18.29 6.25L17.29 6.25L17.29 6.35ZM15 -0.65C17.73 -0.65 20.25 0.02 22.54 1.35C24.81 2.66 26.69 4.54 28 6.8C29.33 9.1 30 11.62 30 14.35C30 17.09 29.33 19.6 28 21.9C26.69 24.17 24.81 26.05 22.54 27.35C20.25 28.69 17.73 29.35 15 29.35C12.26 29.35 9.75 28.69 7.45 27.35C5.18 26.05 3.3 24.17 2 21.9C0.66 19.6 0 17.09 0 14.35C0 11.62 0.66 9.1 2 6.8C3.3 4.54 5.18 2.66 7.45 1.35C9.75 0.02 12.26 -0.65 15 -0.65ZM20.7 19.45L20.59 18.95C20.59 18.75 20.56 18.6 20.5 18.5C20.46 18.46 20.42 18.42 20.37 18.39C20.31 18.36 20.25 18.35 20.2 18.35C20.14 18.35 20.08 18.36 20.03 18.39C19.97 18.42 19.93 18.46 19.9 18.5C19.83 18.6 19.79 18.75 19.79 18.95L19.79 19.45L20.7 19.45ZM20.29 17.55C20.7 17.55 21.01 17.67 21.25 17.9C21.48 18.14 21.59 18.49 21.59 18.95L21.59 20.15L19.79 20.15L19.79 21.15C19.79 21.35 19.83 21.5 19.9 21.6C19.96 21.7 20.08 21.75 20.25 21.75C20.41 21.75 20.53 21.7 20.59 21.6C20.66 21.5 20.7 21.32 20.7 21.05L20.7 20.85L21.59 20.85L21.59 21.15C21.59 21.62 21.48 21.99 21.25 22.25C21.01 22.52 20.68 22.65 20.25 22.65C19.81 22.65 19.48 22.52 19.25 22.25C19.01 21.99 18.9 21.62 18.9 21.15L18.9 18.95C18.9 18.55 19.03 18.22 19.29 17.95C19.56 17.69 19.9 17.55 20.29 17.55Z" fill="#7E7E7E" fill-opacity="1.000000" fill-rule="nonzero"/>
</svg>
