<svg width="24.000000" height="24.000000" viewBox="0 0 24 24" fill="none" xmlns="http://www.w3.org/2000/svg" xmlns:xlink="http://www.w3.org/1999/xlink">
	<desc>
			Created with Pixso.
	</desc>
	<defs/>
	<path id="Vector" d="M8.25 8.25L8.25 6C8.25 5.40332 8.4873 4.83105 8.90918 4.40918C9.33105 3.9873 9.90332 3.75 10.5 3.75L13.5 3.75C14.0967 3.75 14.6689 3.9873 15.0908 4.40918C15.5127 4.83105 15.75 5.40332 15.75 6C15.75 6.59668 15.5127 7.16895 15.0908 7.59082C14.6689 8.0127 14.0967 8.25 13.5 8.25L3.75 8.25L3.75 16.5C3.75 17.4941 4.14551 18.4482 4.84863 19.1514C5.55176 19.8545 6.50586 20.25 7.5 20.25L16.5 20.25C17.4941 20.25 18.4482 19.8545 19.1514 19.1514C19.8545 18.4482 20.25 17.4941 20.25 16.5L20.25 8.25L17.5 8.25" stroke="#111111" stroke-opacity="1.000000" stroke-width="1.500000"/>
</svg>
