<svg width="19.200195" height="17.970703" viewBox="0 0 19.2002 17.9707" fill="none" xmlns="http://www.w3.org/2000/svg" xmlns:xlink="http://www.w3.org/1999/xlink">
	<desc>
			Created with Pixso.
	</desc>
	<defs/>
	<path id="Vector" d="M10.8398 1.13965L10.8398 1.08008C10.8398 0.799805 10.9297 0.549805 11.1104 0.330078C11.29 0.110352 11.5195 0 11.7998 0C12.0801 0 12.3301 0.0898438 12.5498 0.269531C12.7695 0.450195 12.8896 0.69043 12.9102 0.990234C12.9297 1.29004 12.8398 1.54004 12.6396 1.74023C12.4404 1.94043 12.2002 2.04004 11.9199 2.04004L11.7402 2.09961L11.7998 2.19043L11.7402 2.51953L11.6201 3.48047C11.6602 3.51953 11.6797 3.55957 11.6797 3.59961L11.5596 4.2002C11.5195 4.28027 11.4805 4.33984 11.4404 4.37988L11.3799 4.62012C11.2998 4.94043 11.2305 5.2002 11.1699 5.40039C11.1104 5.59961 11.0596 5.75977 11.0195 5.87988L11.0195 6C10.9805 6.2002 10.9502 6.36035 10.9297 6.48047C10.9102 6.59961 10.8398 6.7998 10.7197 7.08008C10.6396 7.24023 10.6396 7.5 10.7197 7.86035L10.7803 7.91992C10.7803 8.04004 10.8301 8.17969 10.9297 8.33984C11.0303 8.5 11.0801 8.63965 11.0801 8.75977C11.1201 9.55957 11.0596 10.2402 10.9004 10.7998L11.0195 11.1602C11.5 11.4004 11.6396 11.6602 11.4404 11.9404L11.7402 12.0596C12.2197 12.2998 12.5596 12.5098 12.7598 12.6904C12.96 12.8701 13.1602 13.0596 13.3604 13.2598C13.5195 13.2998 13.6396 13.3604 13.7197 13.4404L13.9004 13.5C14.7402 14.0596 15.5801 14.7402 16.4199 15.54L16.6602 15.7197L16.6602 15.7803L16.5996 15.9004L16.7803 16.0195L16.8398 16.0195C16.96 16.0996 17.04 16.1396 17.0801 16.1396L17.1396 16.1396C17.1797 16.1396 17.2197 16.1201 17.2598 16.0801L17.3799 16.0195C17.46 15.9404 17.54 15.8799 17.6201 15.8398L17.8604 15.8398C17.9004 15.8398 17.9004 15.8604 17.8604 15.9004L17.6201 16.0195L17.3203 16.3799L17.7402 16.3799L18.1602 16.4404C18.2803 16.4004 18.3799 16.3604 18.46 16.3203L18.7598 16.1396C18.8799 16.0996 19 16.1396 19.1201 16.2598L19.1797 16.2598C19.2197 16.2998 19.2002 16.3604 19.1201 16.4404L18.4004 17.0996C18.2002 17.2598 18.0195 17.3604 17.8604 17.4004L17.0801 17.9404C17.04 17.9805 17 17.9805 16.96 17.9404L16.7803 17.7002L16.6602 17.46L16.5098 17.25L16.3301 17.0098L16.1797 16.8301L16.0596 16.6797L15.8203 16.5C15.7402 16.5 15.6602 16.4805 15.5801 16.4404L14.7998 15.8398C14.6797 15.8398 14.54 15.7803 14.3799 15.6602C13.7803 15.1396 13.3799 14.8203 13.1797 14.7002L12.8203 14.46L12.0996 14.3398C11.8604 14.2998 11.54 14.1797 11.1396 13.9805L10.6602 13.7402C10.3398 13.5801 10.1201 13.5 10 13.5L9.75977 13.3799C9.59961 13.3398 9.48047 13.2998 9.40039 13.2598L9.28027 13.1396C9.2002 13.1396 9.12012 13.1602 9.04004 13.2002L7.83984 13.7998L6.33984 14.46C5.94043 14.7803 5.55957 15.04 5.2002 15.2402L4.54004 15.54L3.51953 16.2598C3.44043 16.3398 3.36035 16.3398 3.28027 16.2598L3.16016 16.3799C3.04004 16.4199 2.95996 16.4404 2.91992 16.4404L2.67969 16.5596L2.67969 16.6797L2.55957 16.6797L2.44043 16.8604C2.36035 17.0195 2.28027 17.1104 2.2002 17.1299C2.12012 17.1504 2.07031 17.1797 2.0498 17.2197C2.03027 17.2598 2.00977 17.29 1.99023 17.3096L1.87012 17.4297L1.69043 17.5498L1.41992 17.5195L1.05957 17.5801L0.820312 17.6396C0.620117 17.6797 0.459961 17.6504 0.339844 17.5498C0.219727 17.4502 0.120117 17.2998 0.0400391 17.0996C-0.0400391 16.9805 0 16.8799 0.160156 16.7998L0.219727 16.7402C0.259766 16.7002 0.320312 16.6797 0.400391 16.6797L0.759766 16.6797L1.24023 16.5L1.48047 16.4404C1.48047 16.3604 1.5 16.2998 1.54004 16.2598C1.58008 16.2197 1.63965 16.2002 1.71973 16.2002L1.71973 16.1396C1.67969 16.0596 1.66016 15.9805 1.66016 15.9004C1.62012 15.8203 1.61035 15.7598 1.62988 15.7197C1.65039 15.6797 1.66992 15.6602 1.69043 15.6602L1.71973 15.6602L1.78027 15.8398C1.82031 16.04 1.87988 16.0996 1.95996 16.0195L2.01953 15.9004C2.05957 15.8203 2.12012 15.7803 2.2002 15.7803L2.32031 15.9004L2.44043 15.7803L2.37988 15.7197C2.37988 15.6797 2.40039 15.6602 2.44043 15.6602L2.67969 15.4199C2.87988 15.1797 3.12012 14.96 3.40039 14.7598C3.95996 14.3203 4.55957 13.9805 5.2002 13.7402C5.40039 13.54 5.62012 13.4404 5.86035 13.4404C6.01953 13.1602 6.25977 12.8604 6.58008 12.54C6.86035 12.3398 7.05957 12.2002 7.17969 12.1201C7.25977 11.96 7.36035 11.8799 7.48047 11.8799L7.54004 11.8799L7.66016 11.7598C7.74023 11.7197 7.7998 11.6797 7.83984 11.6396L7.83984 11.3398C7.83984 11.1396 7.86035 10.9805 7.90039 10.8604C7.94043 10.7402 8.04004 10.6797 8.2002 10.6797L8.44043 10.4404C8.36035 10.2803 8.32031 10.0996 8.32031 9.90039L8.25977 9.90039C8.17969 9.78027 8.13965 9.66016 8.13965 9.54004C8.01953 9.33984 7.94043 9.17969 7.90039 9.05957L7.71973 9.05957C7.67969 9.17969 7.58008 9.25977 7.41992 9.2998L7.36035 9.41992C7.2002 9.7002 7.05957 9.91016 6.94043 10.0498C6.82031 10.1904 6.59961 10.3604 6.28027 10.5596C6.08008 10.7598 5.94043 10.9805 5.86035 11.2197C5.82031 11.3398 5.82031 11.46 5.86035 11.5801L5.7998 11.7002L5.86035 11.7002C5.86035 11.7803 5.87988 11.8203 5.91992 11.8203L5.98047 11.8203C6.05957 11.8604 6.09961 11.9102 6.09961 11.9697C6.09961 12.0303 6.04004 12.0498 5.91992 12.0303C5.7998 12.0098 5.70996 11.9697 5.65039 11.9102C5.58984 11.8496 5.54004 11.8203 5.5 11.8203L5.32031 12C5.24023 12.1201 5.16016 12.1699 5.08008 12.1504C5 12.1299 4.98047 12.0996 5.01953 12.0596L5.08008 12C5.12012 11.9199 5.12012 11.8799 5.08008 11.8799L4.59961 12C4.55957 12.04 4.50977 12.04 4.4502 12C4.38965 11.96 4.40039 11.9199 4.48047 11.8799L4.78027 11.7598C4.78027 11.7197 4.75977 11.7002 4.71973 11.7002C4.55957 11.7803 4.40039 11.7998 4.24023 11.7598L3.94043 11.7002L3.87988 11.6396C3.87988 11.5996 3.90039 11.5801 3.94043 11.5801C4.09961 11.6201 4.2998 11.5996 4.54004 11.5195L4.95996 11.3398L5.44043 10.7998L5.5 10.6797C5.66016 10.3604 5.83008 10.0703 6.00977 9.80957C6.19043 9.5498 6.37988 9.33984 6.58008 9.17969L6.63965 8.94043C6.71973 8.78027 6.7998 8.63965 6.87988 8.51953C6.95996 8.40039 7.05957 8.24023 7.17969 8.04004L7.36035 7.7998C7.51953 7.55957 7.7002 7.44043 7.90039 7.44043L8.08008 7.25977C8.12012 7.21973 8.13965 7.16016 8.13965 7.08008L8.25977 6.95996L8.2002 6.90039C7.95996 6.7002 7.83984 6.51953 7.83984 6.36035C7.7998 6.08008 7.88965 5.83984 8.11035 5.63965C8.33008 5.44043 8.5498 5.34961 8.76953 5.37012C8.99023 5.38965 9.16016 5.45996 9.28027 5.58008L9.40039 5.7002C9.44043 5.7002 9.45996 5.71973 9.45996 5.75977L9.7002 5.87988L9.7002 6.05957C9.78027 6.13965 9.82031 6.2002 9.82031 6.24023C9.90039 6.12012 10.0195 5.98047 10.1797 5.82031L10.4805 4.86035C10.4805 4.7002 10.5195 4.54004 10.5996 4.37988L10.7197 4.2002L10.7197 4.08008L10.9004 3.36035L11.0195 3.36035L11.2002 2.63965C11.2402 2.51953 11.2402 2.37988 11.2002 2.21973L10.96 1.62012L10.8398 1.13965Z" fill="#111111" fill-opacity="1.000000" fill-rule="nonzero"/>
</svg>
